<svg width="18" height="19" viewBox="0 0 18 19" fill="none" xmlns="http://www.w3.org/2000/svg">
<path d="M9 0.34375C6.55338 0.34375 6.24847 0.355564 5.29097 0.396069C4.32954 0.443325 3.67921 0.592406 3.10539 0.815184C2.50485 1.04196 1.96097 1.39693 1.51163 1.85538C1.05248 2.30414 0.697395 2.84818 0.471434 3.44914C0.248656 4.02296 0.099575 4.67329 0.052319 5.63472C0.00900113 6.59278 0 6.89713 0 9.34375C0 11.7904 0.011814 12.0953 0.052319 13.0528C0.099575 14.0114 0.248656 14.6645 0.471434 15.2384C0.69821 15.8389 1.05318 16.3828 1.51163 16.8321C1.96039 17.2913 2.50443 17.6464 3.10539 17.8723C3.67921 18.0923 4.33235 18.2442 5.29097 18.2914C6.24903 18.3347 6.55338 18.3438 9 18.3438C11.4466 18.3438 11.7515 18.3319 12.709 18.2914C13.6676 18.2442 14.3208 18.0917 14.8946 17.8723C15.4952 17.6455 16.039 17.2906 16.4884 16.8321C16.949 16.3845 17.3043 15.8402 17.5286 15.2384C17.7485 14.6645 17.9004 14.0114 17.9477 13.0528C17.991 12.0947 18 11.7904 18 9.34375C18 6.89713 17.9882 6.59222 17.9477 5.63472C17.9004 4.6761 17.748 4.01958 17.5286 3.44914C17.3018 2.8486 16.9468 2.30472 16.4884 1.85538C16.0408 1.39479 15.4964 1.03948 14.8946 0.815184C14.3208 0.592406 13.6676 0.443325 12.709 0.396069C11.751 0.352751 11.4466 0.34375 9 0.34375ZM9 1.96395C11.4027 1.96395 11.6896 1.97577 12.6393 2.01627C13.5152 2.05734 13.9922 2.20361 14.309 2.32737C14.7004 2.4721 15.0548 2.70212 15.3464 3.00077C15.6451 3.29058 15.8744 3.64428 16.0169 4.03534C16.1407 4.35206 16.287 4.82912 16.328 5.70505C16.3685 6.65466 16.3804 6.94214 16.3804 9.34431C16.3804 11.7465 16.3685 12.034 16.3247 12.9836C16.2774 13.8595 16.1311 14.3366 16.0079 14.6533C15.8375 15.0758 15.6473 15.3711 15.3334 15.6907C15.041 15.9876 14.6868 16.2165 14.296 16.3613C13.9832 16.485 13.4994 16.6313 12.6201 16.6724C11.6655 16.7129 11.3842 16.7247 8.97525 16.7247C6.56632 16.7247 6.2856 16.7129 5.32979 16.669C4.45387 16.6217 3.97062 16.4755 3.65389 16.3523C3.22634 16.1818 2.93324 15.9916 2.61933 15.6777C2.3026 15.361 2.1012 15.0595 1.94593 14.6404C1.81991 14.3276 1.6759 13.8438 1.6292 12.9645C1.59714 12.021 1.58195 11.7285 1.58195 9.33081C1.58195 6.93426 1.59714 6.64116 1.6292 5.68592C1.6759 4.80662 1.81991 4.32394 1.94593 4.01002C2.1012 3.5819 2.30316 3.28937 2.61933 2.97264C2.93268 2.65929 3.22634 2.45676 3.65389 2.29812C3.97062 2.17492 4.44206 2.02865 5.32135 1.98477C6.27603 1.95045 6.55732 1.93807 8.96287 1.93807L9 1.96395ZM9 4.72449C8.39318 4.72426 7.79226 4.84362 7.23159 5.07574C6.67092 5.30786 6.16148 5.64818 5.7324 6.07727C5.30331 6.50636 4.96298 7.01579 4.73086 7.57647C4.49875 8.13714 4.37939 8.73805 4.37961 9.34488C4.37939 9.9517 4.49875 10.5526 4.73086 11.1133C4.96298 11.674 5.30331 12.1834 5.7324 12.6125C6.16148 13.0416 6.67092 13.3819 7.23159 13.614C7.79226 13.8461 8.39318 13.9655 9 13.9653C9.60682 13.9655 10.2077 13.8461 10.7684 13.614C11.3291 13.3819 11.8385 13.0416 12.2676 12.6125C12.6967 12.1834 13.037 11.674 13.2691 11.1133C13.5013 10.5526 13.6206 9.9517 13.6204 9.34488C13.6206 8.73805 13.5013 8.13714 13.2691 7.57647C13.037 7.01579 12.6967 6.50636 12.2676 6.07727C11.8385 5.64818 11.3291 5.30786 10.7684 5.07574C10.2077 4.84362 9.60682 4.72426 9 4.72449ZM9 12.3451C7.34154 12.3451 5.99981 11.0033 5.99981 9.34488C5.99981 7.68642 7.34154 6.34469 9 6.34469C10.6585 6.34469 12.0002 7.68642 12.0002 9.34488C12.0002 11.0033 10.6585 12.3451 9 12.3451ZM14.8867 4.53996C14.8864 4.82668 14.7723 5.10156 14.5695 5.3042C14.3666 5.50684 14.0916 5.62066 13.8049 5.62066C13.6631 5.62066 13.5228 5.59274 13.3918 5.53848C13.2608 5.48423 13.1418 5.40471 13.0415 5.30446C12.9413 5.20421 12.8618 5.0852 12.8075 4.95422C12.7533 4.82324 12.7253 4.68286 12.7253 4.54109C12.7253 4.39932 12.7533 4.25893 12.8075 4.12795C12.8618 3.99697 12.9413 3.87796 13.0415 3.77771C13.1418 3.67747 13.2608 3.59795 13.3918 3.54369C13.5228 3.48944 13.6631 3.46151 13.8049 3.46151C14.3996 3.46151 14.8867 3.94533 14.8867 4.53996Z" fill="black"/>
</svg>
