<svg width="24" height="25" viewBox="0 0 24 25" fill="none" xmlns="http://www.w3.org/2000/svg">
<path d="M19.0002 2.34375H5C3 2.34375 2 3.34375 2 5.34375L2.00059 19.3437C2.00059 21.3437 3.00021 22.3437 5.00021 22.3437H19.0002C21.0002 22.3437 22.0002 21.3437 22.0002 19.3437V5.34375C22.0002 3.34375 21.0002 2.34375 19.0002 2.34375ZM8.66687 18.1771H6.16687V9.01042H8.66687V18.1771ZM7.41687 7.95375C6.61187 7.95375 5.95854 7.29542 5.95854 6.48375C5.95854 5.67208 6.61187 5.01375 7.41687 5.01375C8.22187 5.01375 8.87521 5.67208 8.87521 6.48375C8.87521 7.29542 8.22271 7.95375 7.41687 7.95375ZM18.6669 18.1771H16.1669V13.5071C16.1669 10.7004 12.8335 10.9129 12.8335 13.5071V18.1771H10.3335V9.01042H12.8335V10.4812C13.9969 8.32625 18.6669 8.16709 18.6669 12.5446V18.1771Z" fill="black"/>
</svg>
