<svg width="24" height="25" viewBox="0 0 24 25" fill="none" xmlns="http://www.w3.org/2000/svg">
<path d="M23.0011 10.0532C23.0505 8.62191 22.7375 7.20127 22.0911 5.92325C21.6525 5.39885 21.0438 5.04496 20.3711 4.92325C17.5886 4.67078 14.7946 4.5673 12.0011 4.61325C9.21765 4.56521 6.43371 4.66535 3.661 4.91325C3.11282 5.01297 2.60552 5.2701 2.201 5.65325C1.301 6.48325 1.201 7.90325 1.101 9.10325C0.955915 11.2608 0.955915 13.4257 1.101 15.5833C1.12993 16.2587 1.23049 16.9291 1.401 17.5833C1.52158 18.0883 1.76552 18.5556 2.111 18.9433C2.51827 19.3467 3.03738 19.6185 3.601 19.7233C5.75692 19.9894 7.92922 20.0997 10.1011 20.0533C13.6011 20.1033 16.671 20.0533 20.301 19.7733C20.8785 19.6749 21.4122 19.4028 21.8311 18.9933C22.111 18.7132 22.3201 18.3704 22.4411 17.9933C22.7987 16.8959 22.9743 15.7474 22.961 14.5933C23.0011 14.0333 23.0011 10.6533 23.0011 10.0532ZM9.741 15.1933V9.00324L15.661 12.1133C14.0011 13.0333 11.811 14.0733 9.741 15.1933Z" fill="black"/>
</svg>
